<mxfile host="65bd71144e">
    <diagram id="H7K0S40wPE2RuGEwcPNm" name="Page-1">
        <mxGraphModel dx="1396" dy="380" grid="1" gridSize="10" guides="1" tooltips="1" connect="1" arrows="1" fold="1" page="1" pageScale="1" pageWidth="850" pageHeight="1100" math="0" shadow="0">
            <root>
                <mxCell id="0"/>
                <mxCell id="1" parent="0"/>
                <mxCell id="4" value="" style="ellipse;whiteSpace=wrap;html=1;aspect=fixed;strokeColor=none;fillColor=#000000;" parent="1" vertex="1">
                    <mxGeometry x="125" y="50" width="30" height="30" as="geometry"/>
                </mxCell>
                <mxCell id="8" style="edgeStyle=orthogonalEdgeStyle;html=1;entryX=0.5;entryY=0;entryDx=0;entryDy=0;rounded=0;startArrow=none;exitX=0.58;exitY=0.05;exitDx=0;exitDy=0;exitPerimeter=0;" parent="1" source="72" target="6" edge="1">
                    <mxGeometry relative="1" as="geometry">
                        <mxPoint x="70.00000000000023" y="175" as="targetPoint"/>
                        <Array as="points">
                            <mxPoint x="56" y="210"/>
                            <mxPoint x="140" y="210"/>
                        </Array>
                        <mxPoint x="40" y="210" as="sourcePoint"/>
                    </mxGeometry>
                </mxCell>
                <mxCell id="11" style="edgeStyle=orthogonalEdgeStyle;rounded=0;html=1;entryX=0.5;entryY=0;entryDx=0;entryDy=0;align=left;" parent="1" source="6" target="44" edge="1">
                    <mxGeometry relative="1" as="geometry">
                        <mxPoint x="140.00000000000023" y="327" as="targetPoint"/>
                    </mxGeometry>
                </mxCell>
                <mxCell id="35" value="[Root-Element&lt;br style=&quot;font-size: 13px;&quot;&gt;gefunden]" style="edgeLabel;html=1;align=left;verticalAlign=middle;resizable=0;points=[];fontColor=#333333;fontSize=13;" parent="11" vertex="1" connectable="0">
                    <mxGeometry x="-0.1595" y="1" relative="1" as="geometry">
                        <mxPoint x="3" y="-4" as="offset"/>
                    </mxGeometry>
                </mxCell>
                <mxCell id="6" value="" style="rhombus;whiteSpace=wrap;html=1;fillColor=none;strokeColor=#333333;" parent="1" vertex="1">
                    <mxGeometry x="115" y="267" width="50" height="20" as="geometry"/>
                </mxCell>
                <mxCell id="15" style="edgeStyle=orthogonalEdgeStyle;rounded=0;html=1;startArrow=none;startFill=0;endArrow=classic;endFill=1;entryX=0.5;entryY=0;entryDx=0;entryDy=0;" parent="1" source="16" target="19" edge="1">
                    <mxGeometry relative="1" as="geometry">
                        <mxPoint x="120" y="437" as="targetPoint"/>
                    </mxGeometry>
                </mxCell>
                <mxCell id="13" value="" style="edgeStyle=none;html=1;endArrow=classic;exitX=0.5;exitY=1;exitDx=0;exitDy=0;startArrow=none;startFill=0;endFill=1;entryX=0.5;entryY=0;entryDx=0;entryDy=0;" parent="1" source="4" edge="1">
                    <mxGeometry relative="1" as="geometry">
                        <mxPoint x="140" y="80" as="sourcePoint"/>
                        <mxPoint x="140" y="100" as="targetPoint"/>
                    </mxGeometry>
                </mxCell>
                <mxCell id="37" style="edgeStyle=orthogonalEdgeStyle;rounded=0;html=1;entryX=0.5;entryY=0;entryDx=0;entryDy=0;strokeWidth=1;fontColor=#333333;startArrow=none;startFill=0;endArrow=classic;endFill=1;" parent="1" source="14" target="36" edge="1">
                    <mxGeometry relative="1" as="geometry"/>
                </mxCell>
                <mxCell id="14" value="Initialisieren MutationObserver" style="rounded=1;whiteSpace=wrap;html=1;fontSize=19;strokeColor=#333333;" parent="1" vertex="1">
                    <mxGeometry x="50" y="467" width="180" height="46" as="geometry"/>
                </mxCell>
                <mxCell id="17" value="" style="edgeStyle=orthogonalEdgeStyle;rounded=0;html=1;entryX=0.5;entryY=0;entryDx=0;entryDy=0;startArrow=none;startFill=0;endArrow=classic;endFill=1;" parent="1" target="16" edge="1">
                    <mxGeometry relative="1" as="geometry">
                        <mxPoint x="140.05555555555566" y="357" as="sourcePoint"/>
                        <mxPoint x="140" y="427" as="targetPoint"/>
                    </mxGeometry>
                </mxCell>
                <mxCell id="16" value="&lt;u&gt;loadTimes&lt;/u&gt;&lt;br style=&quot;font-size: 19px;&quot;&gt;[leer]" style="rounded=0;whiteSpace=wrap;html=1;strokeColor=#333333;fillColor=#E6E6E6;fontColor=#333333;fontSize=19;" parent="1" vertex="1">
                    <mxGeometry x="87.5" y="377" width="105" height="50" as="geometry"/>
                </mxCell>
                <mxCell id="21" style="rounded=0;html=1;fontColor=#333333;startArrow=none;startFill=0;endArrow=classic;endFill=1;exitX=0.25;exitY=1;exitDx=0;exitDy=0;" parent="1" source="19" edge="1">
                    <mxGeometry relative="1" as="geometry">
                        <mxPoint x="110" y="467" as="targetPoint"/>
                    </mxGeometry>
                </mxCell>
                <mxCell id="23" style="edgeStyle=orthogonalEdgeStyle;rounded=0;html=1;entryX=0.5;entryY=0;entryDx=0;entryDy=0;fontColor=#333333;startArrow=none;startFill=0;endArrow=classic;endFill=1;exitX=0.75;exitY=1;exitDx=0;exitDy=0;" parent="1" source="19" target="22" edge="1">
                    <mxGeometry relative="1" as="geometry">
                        <Array as="points">
                            <mxPoint x="170" y="457"/>
                            <mxPoint x="355" y="457"/>
                        </Array>
                    </mxGeometry>
                </mxCell>
                <mxCell id="19" value="" style="rounded=0;whiteSpace=wrap;html=1;strokeColor=#333333;fontColor=#333333;fillColor=#E6E6E6;" parent="1" vertex="1">
                    <mxGeometry x="80" y="447" width="120" height="1" as="geometry"/>
                </mxCell>
                <mxCell id="22" value="Veröffentlichen loadTimes" style="rounded=1;whiteSpace=wrap;html=1;fontSize=18;strokeColor=#333333;" parent="1" vertex="1">
                    <mxGeometry x="280" y="537" width="150" height="46" as="geometry"/>
                </mxCell>
                <mxCell id="24" value="" style="endArrow=none;html=1;rounded=0;fontColor=#333333;strokeWidth=2;strokeColor=#333333;" parent="1" edge="1">
                    <mxGeometry width="50" height="50" relative="1" as="geometry">
                        <mxPoint x="250" y="720" as="sourcePoint"/>
                        <mxPoint x="250" y="10" as="targetPoint"/>
                    </mxGeometry>
                </mxCell>
                <mxCell id="25" value="" style="endArrow=none;html=1;rounded=0;fontColor=#333333;strokeWidth=2;strokeColor=#333333;" parent="1" edge="1">
                    <mxGeometry width="50" height="50" relative="1" as="geometry">
                        <mxPoint x="460" y="720" as="sourcePoint"/>
                        <mxPoint x="460" y="10" as="targetPoint"/>
                    </mxGeometry>
                </mxCell>
                <mxCell id="28" style="edgeStyle=orthogonalEdgeStyle;rounded=0;html=1;entryX=0.5;entryY=0;entryDx=0;entryDy=0;strokeWidth=1;fontColor=#333333;startArrow=none;startFill=0;endArrow=classic;endFill=1;" parent="1" source="26" target="27" edge="1">
                    <mxGeometry relative="1" as="geometry"/>
                </mxCell>
                <mxCell id="26" value="" style="ellipse;whiteSpace=wrap;html=1;aspect=fixed;strokeColor=none;fillColor=#000000;" parent="1" vertex="1">
                    <mxGeometry x="550" y="487" width="30" height="30" as="geometry"/>
                </mxCell>
                <mxCell id="30" style="edgeStyle=orthogonalEdgeStyle;rounded=0;html=1;entryX=0.5;entryY=0;entryDx=0;entryDy=0;strokeWidth=1;fontColor=#333333;startArrow=none;startFill=0;endArrow=classic;endFill=1;exitX=0.5;exitY=1;exitDx=0;exitDy=0;" parent="1" source="27" target="29" edge="1">
                    <mxGeometry relative="1" as="geometry"/>
                </mxCell>
                <mxCell id="27" value="Ändern DOM" style="rounded=1;whiteSpace=wrap;html=1;fontSize=18;strokeColor=#333333;" parent="1" vertex="1">
                    <mxGeometry x="500" y="547" width="130" height="30" as="geometry"/>
                </mxCell>
                <mxCell id="32" style="edgeStyle=orthogonalEdgeStyle;rounded=0;html=1;entryX=0.5;entryY=0;entryDx=0;entryDy=0;strokeWidth=1;fontColor=#333333;startArrow=none;startFill=0;endArrow=classic;endFill=1;" parent="1" source="29" target="31" edge="1">
                    <mxGeometry relative="1" as="geometry"/>
                </mxCell>
                <mxCell id="29" value="Speichern der Mutations" style="rounded=1;whiteSpace=wrap;html=1;fontSize=18;strokeColor=#333333;" parent="1" vertex="1">
                    <mxGeometry x="34.75" y="607" width="210" height="30" as="geometry"/>
                </mxCell>
                <mxCell id="33" style="edgeStyle=orthogonalEdgeStyle;rounded=0;html=1;entryX=0.25;entryY=0;entryDx=0;entryDy=0;strokeWidth=1;fontColor=#333333;startArrow=none;startFill=0;endArrow=classic;endFill=1;" parent="1" source="31" target="22" edge="1">
                    <mxGeometry relative="1" as="geometry">
                        <Array as="points">
                            <mxPoint x="140" y="727"/>
                            <mxPoint x="270" y="727"/>
                            <mxPoint x="270" y="517"/>
                            <mxPoint x="318" y="517"/>
                        </Array>
                    </mxGeometry>
                </mxCell>
                <mxCell id="31" value="&lt;u style=&quot;font-size: 18px;&quot;&gt;loadTimes&lt;/u&gt;&lt;br style=&quot;font-size: 18px;&quot;&gt;[gefüllt]" style="rounded=0;whiteSpace=wrap;html=1;strokeColor=#333333;fillColor=#E6E6E6;fontColor=#333333;fontSize=18;" parent="1" vertex="1">
                    <mxGeometry x="90" y="667" width="100" height="50" as="geometry"/>
                </mxCell>
                <mxCell id="38" style="rounded=0;html=1;entryX=0.33;entryY=0;entryDx=0;entryDy=0;strokeWidth=1;fontColor=#333333;startArrow=none;startFill=0;endArrow=classic;endFill=1;exitX=0.275;exitY=1.048;exitDx=0;exitDy=0;exitPerimeter=0;entryPerimeter=0;" parent="1" source="36" target="29" edge="1">
                    <mxGeometry relative="1" as="geometry"/>
                </mxCell>
                <mxCell id="36" value="&lt;u style=&quot;font-size: 18px;&quot;&gt;MutationObserver&lt;/u&gt;&lt;br style=&quot;font-size: 18px;&quot;&gt;[initialisiert]" style="rounded=0;whiteSpace=wrap;html=1;strokeColor=#333333;fillColor=#E6E6E6;fontColor=#333333;fontSize=18;" parent="1" vertex="1">
                    <mxGeometry x="60" y="527" width="160" height="50" as="geometry"/>
                </mxCell>
                <mxCell id="39" value="Recording-Script" style="text;html=1;strokeColor=none;fillColor=none;align=center;verticalAlign=middle;whiteSpace=wrap;rounded=0;fontColor=#000000;fontSize=22;" parent="1" vertex="1">
                    <mxGeometry x="50" y="10" width="180" height="30" as="geometry"/>
                </mxCell>
                <mxCell id="40" value="Window" style="text;html=1;strokeColor=none;fillColor=none;align=center;verticalAlign=middle;whiteSpace=wrap;rounded=0;fontColor=#000000;fontSize=22;" parent="1" vertex="1">
                    <mxGeometry x="297.5" y="10" width="115" height="30" as="geometry"/>
                </mxCell>
                <mxCell id="41" value="DOM" style="text;html=1;strokeColor=none;fillColor=none;align=center;verticalAlign=middle;whiteSpace=wrap;rounded=0;fontColor=#000000;fontSize=22;" parent="1" vertex="1">
                    <mxGeometry x="507.5" y="10" width="115" height="30" as="geometry"/>
                </mxCell>
                <mxCell id="76" style="edgeStyle=none;html=1;entryX=0.5;entryY=0;entryDx=0;entryDy=0;" edge="1" parent="1" source="42" target="6">
                    <mxGeometry relative="1" as="geometry"/>
                </mxCell>
                <mxCell id="42" value="Registrieren Startzeit" style="rounded=1;whiteSpace=wrap;html=1;fontSize=18;strokeColor=#333333;" parent="1" vertex="1">
                    <mxGeometry x="49.5" y="160" width="180" height="30" as="geometry"/>
                </mxCell>
                <mxCell id="44" value="Initialisieren LoadTimes" style="rounded=1;whiteSpace=wrap;html=1;fontSize=18;strokeColor=#333333;" parent="1" vertex="1">
                    <mxGeometry x="34.75" y="330" width="209.5" height="30" as="geometry"/>
                </mxCell>
                <mxCell id="45" value="&lt;u style=&quot;font-size: 18px;&quot;&gt;loadTimes&lt;/u&gt;&lt;br style=&quot;font-size: 18px;&quot;&gt;[leer]" style="rounded=0;whiteSpace=wrap;html=1;strokeColor=#333333;fillColor=#E6E6E6;fontColor=#333333;fontSize=18;" parent="1" vertex="1">
                    <mxGeometry x="87" y="377" width="105" height="50" as="geometry"/>
                </mxCell>
                <mxCell id="73" value="" style="edgeStyle=orthogonalEdgeStyle;html=1;entryX=0.578;entryY=1.02;entryDx=0;entryDy=0;exitX=0;exitY=0.5;exitDx=0;exitDy=0;rounded=0;endArrow=classic;entryPerimeter=0;endFill=1;" parent="1" source="6" target="72" edge="1">
                    <mxGeometry relative="1" as="geometry">
                        <mxPoint x="115" y="277" as="sourcePoint"/>
                        <mxPoint x="70" y="175" as="targetPoint"/>
                        <Array as="points">
                            <mxPoint x="55" y="277"/>
                        </Array>
                    </mxGeometry>
                </mxCell>
                <mxCell id="74" value="[Root-Element&lt;br style=&quot;font-size: 13px;&quot;&gt;existiert nicht]" style="edgeLabel;html=1;align=center;verticalAlign=middle;resizable=0;points=[];fontColor=#333333;fontSize=13;" parent="73" vertex="1" connectable="0">
                    <mxGeometry x="-0.5999" relative="1" as="geometry">
                        <mxPoint x="-23" y="17" as="offset"/>
                    </mxGeometry>
                </mxCell>
                <mxCell id="72" value="Warten 100 ms" style="rounded=1;whiteSpace=wrap;html=1;fontSize=18;align=right;spacingRight=5;strokeColor=#333333;" parent="1" vertex="1">
                    <mxGeometry x="-40" y="230" width="165" height="30" as="geometry"/>
                </mxCell>
                <mxCell id="46" value="" style="shape=image;verticalLabelPosition=bottom;labelBackgroundColor=none;verticalAlign=top;aspect=fixed;imageAspect=0;image=data:image/svg+xml,PHN2ZyB4bWxucz0iaHR0cDovL3d3dy53My5vcmcvMjAwMC9zdmciIGZpbGw9Im5vbmUiIHZpZXdCb3g9IjAgMCAyNCAyNCIgaGVpZ2h0PSI4MDBweCIgd2lkdGg9IjgwMHB4Ij4KPHBhdGggc3Ryb2tlLWxpbmVqb2luPSJyb3VuZCIgc3Ryb2tlLWxpbmVjYXA9InJvdW5kIiBzdHJva2Utd2lkdGg9IjIiIHN0cm9rZT0iIzAwMDAwMCIgZD0iTTEyIDE0VjExTTEyIDZDNy44NTc4NiA2IDQuNSA5LjM1Nzg2IDQuNSAxMy41QzQuNSAxNy42NDIxIDcuODU3ODYgMjEgMTIgMjFDMTYuMTQyMSAyMSAxOS41IDE3LjY0MjEgMTkuNSAxMy41QzE5LjUgMTEuNTU2MSAxOC43NjA1IDkuNzg0OTQgMTcuNTQ3NCA4LjQ1MjVNMTIgNkMxNC4xOTgyIDYgMTYuMTc1NiA2Ljk0NTcyIDE3LjU0NzQgOC40NTI1TTEyIDZWM00xOS41IDYuNUwxNy41NDc0IDguNDUyNU0xMiAzSDlNMTIgM0gxNSIvPgo8L3N2Zz4=;imageBackground=none;fontColor=none;noLabel=1;imageBorder=none;" parent="1" vertex="1">
                    <mxGeometry x="-34" y="232" width="26" height="26" as="geometry"/>
                </mxCell>
                <mxCell id="77" style="edgeStyle=none;html=1;entryX=0.5;entryY=0;entryDx=0;entryDy=0;" edge="1" parent="1" source="43" target="42">
                    <mxGeometry relative="1" as="geometry"/>
                </mxCell>
                <mxCell id="43" value="Injecten Skript" style="rounded=1;whiteSpace=wrap;html=1;fontSize=18;strokeColor=#333333;" parent="1" vertex="1">
                    <mxGeometry x="69.5" y="100" width="140" height="30" as="geometry"/>
                </mxCell>
            </root>
        </mxGraphModel>
    </diagram>
</mxfile>